<?xml version="1.0" encoding="UTF-8" standalone="no"?>
<svg width="20px" height="20px" viewBox="-36 -55 161 192" version="1.1" xmlns="http://www.w3.org/2000/svg" xmlns:xlink="http://www.w3.org/1999/xlink">
    <!-- Generator: Sketch 43.2 (39069) - http://www.bohemiancoding.com/sketch -->
    <title>sussy</title>
    <desc>Created with Sketch.</desc>
    <desc>jk its made with https://yqnn.github.io/svg-path-editor/ stupeit</desc>
    <defs></defs>
    <path stroke="#575E75" stroke-width="14" fill="transparent" d="m 77 0 h 28 a 20 20 0 0 1 20 20 v 0 a 20 20 0 0 1 -20 20 V 40 H 77 V 112 A 1 1 0 0 1 42 111 A 1 1 0 0 0 16 112 A 1 1 0 0 1 -18 111 V 74 H -29 C -35 74 -36 73 -36 67 V 5 C -36 -1 -35 -2 -29 -2 H -18 A 1 1 0 0 1 76 0"/>
</svg>